<svg xmlns="http://www.w3.org/2000/svg" version="1.1" viewBox="0 0 888 2152" width="888" height="2152"><defs/><g><g class="title" data-source-line="2"><text x="247.05" y="23" font-size="14" fill="#000000" xml:space="preserve" style="white-space: pre" font-weight="bold" font-family="sans-serif">Catalog 2 of 3 · Management: product, images and variants</text></g><rect x="165.42" y="296" width="491.15" height="132" fill="#00000000" stroke="#000000" stroke-width="1.50"/><rect x="165.42" y="504" width="272.41" height="91" fill="#00000000" stroke="#000000" stroke-width="1.50"/><rect x="165.42" y="888" width="708.54" height="358" fill="#00000000" stroke="#000000" stroke-width="1.50"/><rect x="165.42" y="1293" width="598.24" height="229" fill="#00000000" stroke="#000000" stroke-width="1.50"/><rect x="165.42" y="1641" width="491.15" height="132" fill="#00000000" stroke="#000000" stroke-width="1.50"/><g><title>Manager</title><rect x="32.13" y="118" width="8" height="1953" fill="#00000000" stroke="#00000000" stroke-width="0"/><line x1="35.63" y1="118" x2="35.63" y2="2071" stroke="#181818" stroke-width="0.50" stroke-dasharray="5,5"/></g><g><title>Frontend</title><rect x="177.92" y="118" width="8" height="1953" fill="#00000000" stroke="#00000000" stroke-width="0"/><line x1="181.42" y1="118" x2="181.42" y2="2071" stroke="#181818" stroke-width="0.50" stroke-dasharray="5,5"/></g><g><title>NestJS API</title><rect x="418.33" y="118" width="8" height="1953" fill="#00000000" stroke="#00000000" stroke-width="0"/><line x1="421.83" y1="118" x2="421.83" y2="2071" stroke="#181818" stroke-width="0.50" stroke-dasharray="5,5"/></g><g><title/><rect x="416.83" y="876" width="10" height="384" fill="#FFFFFF" stroke="#181818" stroke-width="1"/></g><g><title>PostgreSQL</title><rect x="637.07" y="118" width="8" height="1953" fill="#00000000" stroke="#00000000" stroke-width="0"/><line x1="640.57" y1="118" x2="640.57" y2="2071" stroke="#181818" stroke-width="0.50" stroke-dasharray="5,5"/></g><g><title>S3</title><rect x="784.72" y="118" width="8" height="1953" fill="#00000000" stroke="#00000000" stroke-width="0"/><line x1="788.22" y1="118" x2="788.22" y2="2071" stroke="#181818" stroke-width="0.50" stroke-dasharray="5,5"/></g><text x="5" y="115" font-size="14" fill="#000000" xml:space="preserve" style="white-space: pre" font-family="sans-serif">Manager</text><circle cx="35.63" cy="50.50" r="8" fill="#E2E2F0" stroke="#181818" stroke-width="0.50"/><path d="M35.63,58.50 L35.63,85.50 M22.63,66.50 L48.63,66.50 M35.63,85.50 L22.63,100.50 M35.63,85.50 L48.63,100.50" fill="#00000000" stroke="#181818" stroke-width="0.50"/><rect x="146.40" y="87" width="70.03" height="30" rx="2.50" ry="2.50" fill="#E2E2F0" stroke="#181818" stroke-width="0.50"/><text x="153.40" y="107" font-size="14" fill="#000000" xml:space="preserve" style="white-space: pre" font-family="sans-serif">Frontend</text><rect x="379.04" y="87" width="85.58" height="30" rx="2.50" ry="2.50" fill="#E2E2F0" stroke="#181818" stroke-width="0.50"/><text x="386.04" y="107" font-size="14" fill="#000000" xml:space="preserve" style="white-space: pre" font-family="sans-serif">NestJS API</text><text x="599.44" y="115" font-size="14" fill="#000000" xml:space="preserve" style="white-space: pre" font-family="sans-serif">PostgreSQL</text><path d="M622.57,66 C622.57,56 640.57,56 640.57,56 C640.57,56 658.57,56 658.57,66 L658.57,92 C658.57,102 640.57,102 640.57,102 C640.57,102 622.57,102 622.57,92 L622.57,66" fill="#E2E2F0" stroke="#181818" stroke-width="0.50"/><path d="M622.57,66 C622.57,76 640.57,76 640.57,76 C640.57,76 658.57,76 658.57,66" fill="#00000000" stroke="#181818" stroke-width="0.50"/><rect x="772.66" y="87" width="31.12" height="30" rx="2.50" ry="2.50" fill="#E2E2F0" stroke="#181818" stroke-width="0.50"/><text x="779.66" y="107" font-size="14" fill="#000000" xml:space="preserve" style="white-space: pre" font-family="sans-serif">S3</text><text x="5" y="2084" font-size="14" fill="#000000" xml:space="preserve" style="white-space: pre" font-family="sans-serif">Manager</text><circle cx="35.63" cy="2095.50" r="8" fill="#E2E2F0" stroke="#181818" stroke-width="0.50"/><path d="M35.63,2103.50 L35.63,2130.50 M22.63,2111.50 L48.63,2111.50 M35.63,2130.50 L22.63,2145.50 M35.63,2130.50 L48.63,2145.50" fill="#00000000" stroke="#181818" stroke-width="0.50"/><rect x="146.40" y="2071" width="70.03" height="30" rx="2.50" ry="2.50" fill="#E2E2F0" stroke="#181818" stroke-width="0.50"/><text x="153.40" y="2091" font-size="14" fill="#000000" xml:space="preserve" style="white-space: pre" font-family="sans-serif">Frontend</text><rect x="379.04" y="2071" width="85.58" height="30" rx="2.50" ry="2.50" fill="#E2E2F0" stroke="#181818" stroke-width="0.50"/><text x="386.04" y="2091" font-size="14" fill="#000000" xml:space="preserve" style="white-space: pre" font-family="sans-serif">NestJS API</text><text x="599.44" y="2084" font-size="14" fill="#000000" xml:space="preserve" style="white-space: pre" font-family="sans-serif">PostgreSQL</text><path d="M622.57,2097 C622.57,2087 640.57,2087 640.57,2087 C640.57,2087 658.57,2087 658.57,2097 L658.57,2123 C658.57,2133 640.57,2133 640.57,2133 C640.57,2133 622.57,2133 622.57,2123 L622.57,2097" fill="#E2E2F0" stroke="#181818" stroke-width="0.50"/><path d="M622.57,2097 C622.57,2107 640.57,2107 640.57,2107 C640.57,2107 658.57,2107 658.57,2097" fill="#00000000" stroke="#181818" stroke-width="0.50"/><rect x="772.66" y="2071" width="31.12" height="30" rx="2.50" ry="2.50" fill="#E2E2F0" stroke="#181818" stroke-width="0.50"/><text x="779.66" y="2091" font-size="14" fill="#000000" xml:space="preserve" style="white-space: pre" font-family="sans-serif">S3</text><path d="M274.15,131 L274.15,186 L569.15,186 L569.15,141 L559.15,131 L274.15,131" fill="#FEFFDD" stroke="#181818" stroke-width="0.50"/><path d="M559.15,131 L559.15,141 L569.15,141 L559.15,131" fill="#FEFFDD" stroke="#181818" stroke-width="0.50"/><text x="280.15" y="148" font-size="13" fill="#000000" xml:space="preserve" style="white-space: pre" font-family="sans-serif">All these routes go through the same sieve:</text><text x="280.15" y="163" font-size="13" fill="#000000" xml:space="preserve" style="white-space: pre" font-family="sans-serif">JwtAuthGuard, then CASL, then ValidationPipe.</text><text x="280.15" y="178" font-size="13" fill="#000000" xml:space="preserve" style="white-space: pre" font-family="sans-serif">An authenticated customer gets 403, not 401</text><rect x="5" y="211.50" width="877.96" height="3" fill="#EEEEEE" stroke="#EEEEEE" stroke-width="1"/><line x1="5" y1="211.50" x2="882.96" y2="211.50" stroke="#000000" stroke-width="1"/><line x1="5" y1="214.50" x2="882.96" y2="214.50" stroke="#000000" stroke-width="1"/><rect x="401.58" y="201" width="84.80" height="23" fill="#EEEEEE" stroke="#000000" stroke-width="2"/><text x="407.58" y="217" font-size="13" fill="#000000" xml:space="preserve" style="white-space: pre" font-weight="bold" font-family="sans-serif">Categories </text><polygon points="169.42,251 179.42,255 169.42,259 173.42,255" fill="#181818" stroke="#181818" stroke-width="1"/><line x1="35.63" y1="255" x2="175.42" y2="255" stroke="#181818" stroke-width="1"/><text x="42.63" y="250" font-size="13" fill="#000000" xml:space="preserve" style="white-space: pre" font-weight="bold" font-family="sans-serif">1</text><text x="53.86" y="250" font-size="13" fill="#000000" xml:space="preserve" style="white-space: pre" font-family="sans-serif">Creates a category</text><polygon points="409.83,280 419.83,284 409.83,288 413.83,284" fill="#181818" stroke="#181818" stroke-width="1"/><line x1="181.42" y1="284" x2="415.83" y2="284" stroke="#181818" stroke-width="1"/><text x="188.42" y="279" font-size="13" fill="#000000" xml:space="preserve" style="white-space: pre" font-weight="bold" font-family="sans-serif">2</text><text x="199.65" y="279" font-size="13" fill="#000000" xml:space="preserve" style="white-space: pre" font-family="sans-serif">POST /categories</text><path d="M165.42,296 L225.59,296 L225.59,303 L215.59,313 L165.42,313 L165.42,296" fill="#EEEEEE" stroke="#000000" stroke-width="1.50"/><rect x="165.42" y="296" width="491.15" height="132" fill="#00000000" stroke="#000000" stroke-width="1.50"/><text x="180.42" y="309" font-size="13" fill="#000000" xml:space="preserve" style="white-space: pre" font-weight="bold" font-family="sans-serif">alt</text><text x="240.59" y="308" font-size="11" fill="#000000" xml:space="preserve" style="white-space: pre" font-weight="bold" font-family="sans-serif">[Duplicate name]</text><polygon points="192.42,340 182.42,344 192.42,348 188.42,344" fill="#181818" stroke="#181818" stroke-width="1"/><line x1="186.42" y1="344" x2="420.83" y2="344" stroke="#181818" stroke-width="1" stroke-dasharray="2,2"/><text x="198.42" y="339" font-size="13" fill="#000000" xml:space="preserve" style="white-space: pre" font-weight="bold" font-family="sans-serif">3</text><text x="209.65" y="339" font-size="13" fill="#000000" xml:space="preserve" style="white-space: pre" font-family="sans-serif">409 Conflict</text><line x1="165.42" y1="353" x2="656.57" y2="353" stroke="#000000" stroke-width="1" stroke-dasharray="2,2"/><text x="170.42" y="365" font-size="11" fill="#000000" xml:space="preserve" style="white-space: pre" font-weight="bold" font-family="sans-serif">[Success]</text><polygon points="628.57,387 638.57,391 628.57,395 632.57,391" fill="#181818" stroke="#181818" stroke-width="1"/><line x1="421.83" y1="391" x2="634.57" y2="391" stroke="#181818" stroke-width="1"/><text x="428.83" y="386" font-size="13" fill="#000000" xml:space="preserve" style="white-space: pre" font-weight="bold" font-family="sans-serif">4</text><text x="440.06" y="386" font-size="13" fill="#000000" xml:space="preserve" style="white-space: pre" font-family="sans-serif">Inserts</text><polygon points="192.42,416 182.42,420 192.42,424 188.42,420" fill="#181818" stroke="#181818" stroke-width="1"/><line x1="186.42" y1="420" x2="420.83" y2="420" stroke="#181818" stroke-width="1" stroke-dasharray="2,2"/><text x="198.42" y="415" font-size="13" fill="#000000" xml:space="preserve" style="white-space: pre" font-weight="bold" font-family="sans-serif">5</text><text x="209.65" y="415" font-size="13" fill="#000000" xml:space="preserve" style="white-space: pre" font-family="sans-serif">201</text><polygon points="409.83,459 419.83,463 409.83,467 413.83,463" fill="#181818" stroke="#181818" stroke-width="1"/><line x1="181.42" y1="463" x2="415.83" y2="463" stroke="#181818" stroke-width="1"/><text x="188.42" y="458" font-size="13" fill="#000000" xml:space="preserve" style="white-space: pre" font-weight="bold" font-family="sans-serif">6</text><text x="199.65" y="458" font-size="13" fill="#000000" xml:space="preserve" style="white-space: pre" font-family="sans-serif">PATCH /categories/ID</text><polygon points="409.83,488 419.83,492 409.83,496 413.83,492" fill="#181818" stroke="#181818" stroke-width="1"/><line x1="181.42" y1="492" x2="415.83" y2="492" stroke="#181818" stroke-width="1"/><text x="188.42" y="487" font-size="13" fill="#000000" xml:space="preserve" style="white-space: pre" font-weight="bold" font-family="sans-serif">7</text><text x="199.65" y="487" font-size="13" fill="#000000" xml:space="preserve" style="white-space: pre" font-family="sans-serif">DELETE /categories/ID</text><path d="M165.42,504 L225.59,504 L225.59,511 L215.59,521 L165.42,521 L165.42,504" fill="#EEEEEE" stroke="#000000" stroke-width="1.50"/><rect x="165.42" y="504" width="272.41" height="91" fill="#00000000" stroke="#000000" stroke-width="1.50"/><text x="180.42" y="517" font-size="13" fill="#000000" xml:space="preserve" style="white-space: pre" font-weight="bold" font-family="sans-serif">alt</text><text x="240.59" y="516" font-size="11" fill="#000000" xml:space="preserve" style="white-space: pre" font-weight="bold" font-family="sans-serif">[Still has products]</text><polygon points="192.42,548 182.42,552 192.42,556 188.42,552" fill="#181818" stroke="#181818" stroke-width="1"/><line x1="186.42" y1="552" x2="420.83" y2="552" stroke="#181818" stroke-width="1" stroke-dasharray="2,2"/><text x="198.42" y="547" font-size="13" fill="#000000" xml:space="preserve" style="white-space: pre" font-weight="bold" font-family="sans-serif">8</text><text x="209.65" y="547" font-size="13" fill="#000000" xml:space="preserve" style="white-space: pre" font-family="sans-serif">409 Conflict</text><line x1="165.42" y1="561" x2="437.83" y2="561" stroke="#000000" stroke-width="1" stroke-dasharray="2,2"/><polygon points="192.42,583 182.42,587 192.42,591 188.42,587" fill="#181818" stroke="#181818" stroke-width="1"/><line x1="186.42" y1="587" x2="420.83" y2="587" stroke="#181818" stroke-width="1" stroke-dasharray="2,2"/><text x="198.42" y="582" font-size="13" fill="#000000" xml:space="preserve" style="white-space: pre" font-weight="bold" font-family="sans-serif">9</text><text x="209.65" y="582" font-size="13" fill="#000000" xml:space="preserve" style="white-space: pre" font-family="sans-serif">204</text><rect x="5" y="629.50" width="877.96" height="3" fill="#EEEEEE" stroke="#EEEEEE" stroke-width="1"/><line x1="5" y1="629.50" x2="882.96" y2="629.50" stroke="#000000" stroke-width="1"/><line x1="5" y1="632.50" x2="882.96" y2="632.50" stroke="#000000" stroke-width="1"/><rect x="410.62" y="619" width="66.72" height="23" fill="#EEEEEE" stroke="#000000" stroke-width="2"/><text x="416.62" y="635" font-size="13" fill="#000000" xml:space="preserve" style="white-space: pre" font-weight="bold" font-family="sans-serif">Product </text><polygon points="169.42,669 179.42,673 169.42,677 173.42,673" fill="#181818" stroke="#181818" stroke-width="1"/><line x1="35.63" y1="673" x2="175.42" y2="673" stroke="#181818" stroke-width="1"/><text x="42.63" y="668" font-size="13" fill="#000000" xml:space="preserve" style="white-space: pre" font-weight="bold" font-family="sans-serif">10</text><text x="61.09" y="668" font-size="13" fill="#000000" xml:space="preserve" style="white-space: pre" font-family="sans-serif">Creates a product</text><polygon points="409.83,698 419.83,702 409.83,706 413.83,702" fill="#181818" stroke="#181818" stroke-width="1"/><line x1="181.42" y1="702" x2="415.83" y2="702" stroke="#181818" stroke-width="1"/><text x="188.42" y="697" font-size="13" fill="#000000" xml:space="preserve" style="white-space: pre" font-weight="bold" font-family="sans-serif">11</text><text x="206.16" y="697" font-size="13" fill="#000000" xml:space="preserve" style="white-space: pre" font-family="sans-serif">POST /products</text><polygon points="628.57,727 638.57,731 628.57,735 632.57,731" fill="#181818" stroke="#181818" stroke-width="1"/><line x1="421.83" y1="731" x2="634.57" y2="731" stroke="#181818" stroke-width="1"/><text x="428.83" y="726" font-size="13" fill="#000000" xml:space="preserve" style="white-space: pre" font-weight="bold" font-family="sans-serif">12</text><text x="447.29" y="726" font-size="13" fill="#000000" xml:space="preserve" style="white-space: pre" font-family="sans-serif">Inserts the product</text><polygon points="192.42,756 182.42,760 192.42,764 188.42,760" fill="#181818" stroke="#181818" stroke-width="1"/><line x1="186.42" y1="760" x2="420.83" y2="760" stroke="#181818" stroke-width="1" stroke-dasharray="2,2"/><text x="198.42" y="755" font-size="13" fill="#000000" xml:space="preserve" style="white-space: pre" font-weight="bold" font-family="sans-serif">13</text><text x="216.88" y="755" font-size="13" fill="#000000" xml:space="preserve" style="white-space: pre" font-family="sans-serif">201 with Location</text><rect x="5" y="788.50" width="877.96" height="3" fill="#EEEEEE" stroke="#EEEEEE" stroke-width="1"/><line x1="5" y1="788.50" x2="882.96" y2="788.50" stroke="#000000" stroke-width="1"/><line x1="5" y1="791.50" x2="882.96" y2="791.50" stroke="#000000" stroke-width="1"/><rect x="412.77" y="778" width="62.41" height="23" fill="#EEEEEE" stroke="#000000" stroke-width="2"/><text x="418.77" y="794" font-size="13" fill="#000000" xml:space="preserve" style="white-space: pre" font-weight="bold" font-family="sans-serif">Images </text><polygon points="169.42,828 179.42,832 169.42,836 173.42,832" fill="#181818" stroke="#181818" stroke-width="1"/><line x1="35.63" y1="832" x2="175.42" y2="832" stroke="#181818" stroke-width="1"/><text x="42.63" y="827" font-size="13" fill="#000000" xml:space="preserve" style="white-space: pre" font-weight="bold" font-family="sans-serif">14</text><text x="61.09" y="827" font-size="13" fill="#000000" xml:space="preserve" style="white-space: pre" font-family="sans-serif">Uploads a photo</text><polygon points="404.83,872 414.83,876 404.83,880 408.83,876" fill="#181818" stroke="#181818" stroke-width="1"/><line x1="181.42" y1="876" x2="410.83" y2="876" stroke="#181818" stroke-width="1"/><text x="188.42" y="863.50" font-size="13" fill="#000000" xml:space="preserve" style="white-space: pre" font-weight="bold" font-family="sans-serif">15</text><text x="206.88" y="856" font-size="13" fill="#000000" xml:space="preserve" style="white-space: pre" font-family="sans-serif">POST /products/ID/images</text><text x="206.88" y="871" font-size="13" fill="#000000" xml:space="preserve" style="white-space: pre" font-family="sans-serif">multipart/form-data</text><path d="M165.42,888 L225.59,888 L225.59,895 L215.59,905 L165.42,905 L165.42,888" fill="#EEEEEE" stroke="#000000" stroke-width="1.50"/><rect x="165.42" y="888" width="708.54" height="358" fill="#00000000" stroke="#000000" stroke-width="1.50"/><text x="180.42" y="901" font-size="13" fill="#000000" xml:space="preserve" style="white-space: pre" font-weight="bold" font-family="sans-serif">alt</text><text x="240.59" y="900" font-size="11" fill="#000000" xml:space="preserve" style="white-space: pre" font-weight="bold" font-family="sans-serif">[Unsupported type]</text><polygon points="192.42,932 182.42,936 192.42,940 188.42,936" fill="#181818" stroke="#181818" stroke-width="1"/><line x1="186.42" y1="936" x2="415.83" y2="936" stroke="#181818" stroke-width="1" stroke-dasharray="2,2"/><text x="198.42" y="931" font-size="13" fill="#000000" xml:space="preserve" style="white-space: pre" font-weight="bold" font-family="sans-serif">16</text><text x="216.88" y="931" font-size="13" fill="#000000" xml:space="preserve" style="white-space: pre" font-family="sans-serif">415 UnsupportedMediaType</text><path d="M431.83,949 L431.83,974 L595.83,974 L595.83,959 L585.83,949 L431.83,949" fill="#FEFFDD" stroke="#181818" stroke-width="0.50"/><path d="M585.83,949 L585.83,959 L595.83,959 L585.83,949" fill="#FEFFDD" stroke="#181818" stroke-width="0.50"/><text x="437.83" y="966" font-size="13" fill="#000000" xml:space="preserve" style="white-space: pre" font-family="sans-serif">Only jpeg, png and webp</text><line x1="165.42" y1="980" x2="873.96" y2="980" stroke="#000000" stroke-width="1" stroke-dasharray="2,2"/><text x="170.42" y="992" font-size="11" fill="#000000" xml:space="preserve" style="white-space: pre" font-weight="bold" font-family="sans-serif">[Exceeds 5 MB]</text><polygon points="192.42,1014 182.42,1018 192.42,1022 188.42,1018" fill="#181818" stroke="#181818" stroke-width="1"/><line x1="186.42" y1="1018" x2="415.83" y2="1018" stroke="#181818" stroke-width="1" stroke-dasharray="2,2"/><text x="198.42" y="1013" font-size="13" fill="#000000" xml:space="preserve" style="white-space: pre" font-weight="bold" font-family="sans-serif">17</text><text x="216.88" y="1013" font-size="13" fill="#000000" xml:space="preserve" style="white-space: pre" font-family="sans-serif">413 PayloadTooLarge</text><path d="M431.83,1031 L431.83,1086 L666.83,1086 L666.83,1041 L656.83,1031 L431.83,1031" fill="#FEFFDD" stroke="#181818" stroke-width="0.50"/><path d="M656.83,1031 L656.83,1041 L666.83,1041 L656.83,1031" fill="#FEFFDD" stroke="#181818" stroke-width="0.50"/><text x="437.83" y="1048" font-size="13" fill="#000000" xml:space="preserve" style="white-space: pre" font-family="sans-serif">The ceiling is declared in the contract</text><text x="437.83" y="1063" font-size="13" fill="#000000" xml:space="preserve" style="white-space: pre" font-family="sans-serif">so the front can reject the file</text><text x="437.83" y="1078" font-size="13" fill="#000000" xml:space="preserve" style="white-space: pre" font-family="sans-serif">before uploading it</text><line x1="165.42" y1="1092" x2="873.96" y2="1092" stroke="#000000" stroke-width="1" stroke-dasharray="2,2"/><text x="170.42" y="1104" font-size="11" fill="#000000" xml:space="preserve" style="white-space: pre" font-weight="bold" font-family="sans-serif">[Success]</text><polygon points="776.22,1126 786.22,1130 776.22,1134 780.22,1130" fill="#181818" stroke="#181818" stroke-width="1"/><line x1="426.83" y1="1130" x2="782.22" y2="1130" stroke="#181818" stroke-width="1"/><text x="433.83" y="1125" font-size="13" fill="#000000" xml:space="preserve" style="white-space: pre" font-weight="bold" font-family="sans-serif">18</text><text x="452.29" y="1125" font-size="13" fill="#000000" xml:space="preserve" style="white-space: pre" font-family="sans-serif">Stores the binary</text><polygon points="628.57,1155 638.57,1159 628.57,1163 632.57,1159" fill="#181818" stroke="#181818" stroke-width="1"/><line x1="426.83" y1="1159" x2="634.57" y2="1159" stroke="#181818" stroke-width="1"/><text x="433.83" y="1154" font-size="13" fill="#000000" xml:space="preserve" style="white-space: pre" font-weight="bold" font-family="sans-serif">19</text><text x="452.29" y="1154" font-size="13" fill="#000000" xml:space="preserve" style="white-space: pre" font-family="sans-serif">Stores the row with its UUIDv7</text><polygon points="192.42,1184 182.42,1188 192.42,1192 188.42,1188" fill="#181818" stroke="#181818" stroke-width="1"/><line x1="186.42" y1="1188" x2="415.83" y2="1188" stroke="#181818" stroke-width="1" stroke-dasharray="2,2"/><text x="198.42" y="1183" font-size="13" fill="#000000" xml:space="preserve" style="white-space: pre" font-weight="bold" font-family="sans-serif">20</text><text x="216.88" y="1183" font-size="13" fill="#000000" xml:space="preserve" style="white-space: pre" font-family="sans-serif">201 ProductImage</text><path d="M645.57,1201 L645.57,1241 L852.57,1241 L852.57,1211 L842.57,1201 L645.57,1201" fill="#FEFFDD" stroke="#181818" stroke-width="0.50"/><path d="M842.57,1201 L842.57,1211 L852.57,1211 L842.57,1201" fill="#FEFFDD" stroke="#181818" stroke-width="0.50"/><text x="651.57" y="1218" font-size="13" fill="#000000" xml:space="preserve" style="white-space: pre" font-family="sans-serif">The first image by UUIDv7 order</text><text x="651.57" y="1233" font-size="13" fill="#000000" xml:space="preserve" style="white-space: pre" font-family="sans-serif">is the catalog cover</text><polygon points="409.83,1277 419.83,1281 409.83,1285 413.83,1281" fill="#181818" stroke="#181818" stroke-width="1"/><line x1="181.42" y1="1281" x2="415.83" y2="1281" stroke="#181818" stroke-width="1"/><text x="188.42" y="1276" font-size="13" fill="#000000" xml:space="preserve" style="white-space: pre" font-weight="bold" font-family="sans-serif">21</text><text x="206.88" y="1276" font-size="13" fill="#000000" xml:space="preserve" style="white-space: pre" font-family="sans-serif">DELETE /products/ID/images/IMG</text><path d="M165.42,1293 L225.59,1293 L225.59,1300 L215.59,1310 L165.42,1310 L165.42,1293" fill="#EEEEEE" stroke="#000000" stroke-width="1.50"/><rect x="165.42" y="1293" width="598.24" height="229" fill="#00000000" stroke="#000000" stroke-width="1.50"/><text x="180.42" y="1306" font-size="13" fill="#000000" xml:space="preserve" style="white-space: pre" font-weight="bold" font-family="sans-serif">alt</text><text x="240.59" y="1305" font-size="11" fill="#000000" xml:space="preserve" style="white-space: pre" font-weight="bold" font-family="sans-serif">[A SKU still references it]</text><polygon points="192.42,1337 182.42,1341 192.42,1345 188.42,1341" fill="#181818" stroke="#181818" stroke-width="1"/><line x1="186.42" y1="1341" x2="420.83" y2="1341" stroke="#181818" stroke-width="1" stroke-dasharray="2,2"/><text x="198.42" y="1336" font-size="13" fill="#000000" xml:space="preserve" style="white-space: pre" font-weight="bold" font-family="sans-serif">22</text><text x="216.88" y="1336" font-size="13" fill="#000000" xml:space="preserve" style="white-space: pre" font-family="sans-serif">409 Conflict</text><line x1="165.42" y1="1350" x2="763.66" y2="1350" stroke="#000000" stroke-width="1" stroke-dasharray="2,2"/><text x="170.42" y="1362" font-size="11" fill="#000000" xml:space="preserve" style="white-space: pre" font-weight="bold" font-family="sans-serif">[It's the last image of an active product]</text><polygon points="192.42,1384 182.42,1388 192.42,1392 188.42,1388" fill="#181818" stroke="#181818" stroke-width="1"/><line x1="186.42" y1="1388" x2="420.83" y2="1388" stroke="#181818" stroke-width="1" stroke-dasharray="2,2"/><text x="198.42" y="1383" font-size="13" fill="#000000" xml:space="preserve" style="white-space: pre" font-weight="bold" font-family="sans-serif">23</text><text x="216.88" y="1383" font-size="13" fill="#000000" xml:space="preserve" style="white-space: pre" font-family="sans-serif">409 Conflict</text><path d="M426.83,1401 L426.83,1441 L741.83,1441 L741.83,1411 L731.83,1401 L426.83,1401" fill="#FEFFDD" stroke="#181818" stroke-width="0.50"/><path d="M731.83,1401 L731.83,1411 L741.83,1411 L731.83,1401" fill="#FEFFDD" stroke="#181818" stroke-width="0.50"/><text x="432.83" y="1418" font-size="13" fill="#000000" xml:space="preserve" style="white-space: pre" font-family="sans-serif">An active product can't be left without an image.</text><text x="432.83" y="1433" font-size="13" fill="#000000" xml:space="preserve" style="white-space: pre" font-family="sans-serif">Upload the replacement first, or disable the product</text><line x1="165.42" y1="1447" x2="763.66" y2="1447" stroke="#000000" stroke-width="1" stroke-dasharray="2,2"/><text x="170.42" y="1459" font-size="11" fill="#000000" xml:space="preserve" style="white-space: pre" font-weight="bold" font-family="sans-serif">[Success]</text><polygon points="628.57,1481 638.57,1485 628.57,1489 632.57,1485" fill="#181818" stroke="#181818" stroke-width="1"/><line x1="421.83" y1="1485" x2="634.57" y2="1485" stroke="#181818" stroke-width="1"/><text x="428.83" y="1480" font-size="13" fill="#000000" xml:space="preserve" style="white-space: pre" font-weight="bold" font-family="sans-serif">24</text><text x="447.29" y="1480" font-size="13" fill="#000000" xml:space="preserve" style="white-space: pre" font-family="sans-serif">Deletes the row</text><polygon points="192.42,1510 182.42,1514 192.42,1518 188.42,1514" fill="#181818" stroke="#181818" stroke-width="1"/><line x1="186.42" y1="1514" x2="420.83" y2="1514" stroke="#181818" stroke-width="1" stroke-dasharray="2,2"/><text x="198.42" y="1509" font-size="13" fill="#000000" xml:space="preserve" style="white-space: pre" font-weight="bold" font-family="sans-serif">25</text><text x="216.88" y="1509" font-size="13" fill="#000000" xml:space="preserve" style="white-space: pre" font-family="sans-serif">204</text><rect x="5" y="1556.50" width="877.96" height="3" fill="#EEEEEE" stroke="#EEEEEE" stroke-width="1"/><line x1="5" y1="1556.50" x2="882.96" y2="1556.50" stroke="#000000" stroke-width="1"/><line x1="5" y1="1559.50" x2="882.96" y2="1559.50" stroke="#000000" stroke-width="1"/><rect x="409.88" y="1546" width="68.20" height="23" fill="#EEEEEE" stroke="#000000" stroke-width="2"/><text x="415.88" y="1562" font-size="13" fill="#000000" xml:space="preserve" style="white-space: pre" font-weight="bold" font-family="sans-serif">Variants </text><polygon points="169.42,1596 179.42,1600 169.42,1604 173.42,1600" fill="#181818" stroke="#181818" stroke-width="1"/><line x1="35.63" y1="1600" x2="175.42" y2="1600" stroke="#181818" stroke-width="1"/><text x="42.63" y="1595" font-size="13" fill="#000000" xml:space="preserve" style="white-space: pre" font-weight="bold" font-family="sans-serif">26</text><text x="61.09" y="1595" font-size="13" fill="#000000" xml:space="preserve" style="white-space: pre" font-family="sans-serif">Adds a size</text><polygon points="409.83,1625 419.83,1629 409.83,1633 413.83,1629" fill="#181818" stroke="#181818" stroke-width="1"/><line x1="181.42" y1="1629" x2="415.83" y2="1629" stroke="#181818" stroke-width="1"/><text x="188.42" y="1624" font-size="13" fill="#000000" xml:space="preserve" style="white-space: pre" font-weight="bold" font-family="sans-serif">27</text><text x="206.88" y="1624" font-size="13" fill="#000000" xml:space="preserve" style="white-space: pre" font-family="sans-serif">POST /products/ID/skus</text><path d="M165.42,1641 L225.59,1641 L225.59,1648 L215.59,1658 L165.42,1658 L165.42,1641" fill="#EEEEEE" stroke="#000000" stroke-width="1.50"/><rect x="165.42" y="1641" width="491.15" height="132" fill="#00000000" stroke="#000000" stroke-width="1.50"/><text x="180.42" y="1654" font-size="13" fill="#000000" xml:space="preserve" style="white-space: pre" font-weight="bold" font-family="sans-serif">alt</text><text x="240.59" y="1653" font-size="11" fill="#000000" xml:space="preserve" style="white-space: pre" font-weight="bold" font-family="sans-serif">[Duplicate attribute combination]</text><polygon points="192.42,1685 182.42,1689 192.42,1693 188.42,1689" fill="#181818" stroke="#181818" stroke-width="1"/><line x1="186.42" y1="1689" x2="420.83" y2="1689" stroke="#181818" stroke-width="1" stroke-dasharray="2,2"/><text x="198.42" y="1684" font-size="13" fill="#000000" xml:space="preserve" style="white-space: pre" font-weight="bold" font-family="sans-serif">28</text><text x="216.88" y="1684" font-size="13" fill="#000000" xml:space="preserve" style="white-space: pre" font-family="sans-serif">409 Conflict</text><line x1="165.42" y1="1698" x2="656.57" y2="1698" stroke="#000000" stroke-width="1" stroke-dasharray="2,2"/><text x="170.42" y="1710" font-size="11" fill="#000000" xml:space="preserve" style="white-space: pre" font-weight="bold" font-family="sans-serif">[Success]</text><polygon points="628.57,1732 638.57,1736 628.57,1740 632.57,1736" fill="#181818" stroke="#181818" stroke-width="1"/><line x1="421.83" y1="1736" x2="634.57" y2="1736" stroke="#181818" stroke-width="1"/><text x="428.83" y="1731" font-size="13" fill="#000000" xml:space="preserve" style="white-space: pre" font-weight="bold" font-family="sans-serif">29</text><text x="447.29" y="1731" font-size="13" fill="#000000" xml:space="preserve" style="white-space: pre" font-family="sans-serif">Inserts the SKU with its stock</text><polygon points="192.42,1761 182.42,1765 192.42,1769 188.42,1765" fill="#181818" stroke="#181818" stroke-width="1"/><line x1="186.42" y1="1765" x2="420.83" y2="1765" stroke="#181818" stroke-width="1" stroke-dasharray="2,2"/><text x="198.42" y="1760" font-size="13" fill="#000000" xml:space="preserve" style="white-space: pre" font-weight="bold" font-family="sans-serif">30</text><text x="216.88" y="1760" font-size="13" fill="#000000" xml:space="preserve" style="white-space: pre" font-family="sans-serif">201</text><polygon points="409.83,1804 419.83,1808 409.83,1812 413.83,1808" fill="#181818" stroke="#181818" stroke-width="1"/><line x1="181.42" y1="1808" x2="415.83" y2="1808" stroke="#181818" stroke-width="1"/><text x="188.42" y="1803" font-size="13" fill="#000000" xml:space="preserve" style="white-space: pre" font-weight="bold" font-family="sans-serif">31</text><text x="206.88" y="1803" font-size="13" fill="#000000" xml:space="preserve" style="white-space: pre" font-family="sans-serif">PATCH /skus/ID</text><path d="M426.83,1821 L426.83,1876 L653.83,1876 L653.83,1831 L643.83,1821 L426.83,1821" fill="#FEFFDD" stroke="#181818" stroke-width="0.50"/><path d="M643.83,1821 L643.83,1831 L653.83,1831 L643.83,1821" fill="#FEFFDD" stroke="#181818" stroke-width="0.50"/><text x="432.83" y="1838" font-size="13" fill="#000000" xml:space="preserve" style="white-space: pre" font-family="sans-serif">Changing a SKU's price deactivates</text><text x="432.83" y="1853" font-size="13" fill="#000000" xml:space="preserve" style="white-space: pre" font-family="sans-serif">its active payment link: a link</text><text x="432.83" y="1868" font-size="13" fill="#000000" xml:space="preserve" style="white-space: pre" font-family="sans-serif">can't sell at a stale price</text><rect x="5" y="1901.50" width="877.96" height="3" fill="#EEEEEE" stroke="#EEEEEE" stroke-width="1"/><line x1="5" y1="1901.50" x2="882.96" y2="1901.50" stroke="#000000" stroke-width="1"/><line x1="5" y1="1904.50" x2="882.96" y2="1904.50" stroke="#000000" stroke-width="1"/><rect x="396.52" y="1891" width="94.91" height="23" fill="#EEEEEE" stroke="#000000" stroke-width="2"/><text x="402.52" y="1907" font-size="13" fill="#000000" xml:space="preserve" style="white-space: pre" font-weight="bold" font-family="sans-serif">Deactivation </text><polygon points="409.83,1941 419.83,1945 409.83,1949 413.83,1945" fill="#181818" stroke="#181818" stroke-width="1"/><line x1="181.42" y1="1945" x2="415.83" y2="1945" stroke="#181818" stroke-width="1"/><text x="188.42" y="1940" font-size="13" fill="#000000" xml:space="preserve" style="white-space: pre" font-weight="bold" font-family="sans-serif">32</text><text x="206.88" y="1940" font-size="13" fill="#000000" xml:space="preserve" style="white-space: pre" font-family="sans-serif">DELETE /products/ID</text><polygon points="628.57,1970 638.57,1974 628.57,1978 632.57,1974" fill="#181818" stroke="#181818" stroke-width="1"/><line x1="421.83" y1="1974" x2="634.57" y2="1974" stroke="#181818" stroke-width="1"/><text x="428.83" y="1969" font-size="13" fill="#000000" xml:space="preserve" style="white-space: pre" font-weight="bold" font-family="sans-serif">33</text><text x="447.29" y="1969" font-size="13" fill="#000000" xml:space="preserve" style="white-space: pre" font-family="sans-serif">Soft delete</text><polygon points="192.42,1999 182.42,2003 192.42,2007 188.42,2003" fill="#181818" stroke="#181818" stroke-width="1"/><line x1="186.42" y1="2003" x2="420.83" y2="2003" stroke="#181818" stroke-width="1" stroke-dasharray="2,2"/><text x="198.42" y="1998" font-size="13" fill="#000000" xml:space="preserve" style="white-space: pre" font-weight="bold" font-family="sans-serif">34</text><text x="216.88" y="1998" font-size="13" fill="#000000" xml:space="preserve" style="white-space: pre" font-family="sans-serif">204</text><path d="M645.57,2016 L645.57,2056 L843.57,2056 L843.57,2026 L833.57,2016 L645.57,2016" fill="#FEFFDD" stroke="#181818" stroke-width="0.50"/><path d="M833.57,2016 L833.57,2026 L843.57,2026 L833.57,2016" fill="#FEFFDD" stroke="#181818" stroke-width="0.50"/><text x="651.57" y="2033" font-size="13" fill="#000000" xml:space="preserve" style="white-space: pre" font-family="sans-serif">Soft, not hard: historical orders</text><text x="651.57" y="2048" font-size="13" fill="#000000" xml:space="preserve" style="white-space: pre" font-family="sans-serif">still point at the product</text><?plantuml-src dLLDSzis4BtpLsnzyKMkaiYPJZNZpD2IxIgL4dKevQGBIAv8n1300PPIr3_MUtzP5e1iwyFoT7eIXGLs7zvxk_Y5QbmXD4f8dP0aXJ0G99Ifu0EO9VJWttzW8hIeU9kcFZJMb6r17P0hNdCWT0bhOQNGv1BHaj7jAaURk4Uf6s752YowncY74tIEZzoYCflKMhC1iYqcYIZ8MBY8HUm520UJXuJFaYnamtdXujuQJQZB4Bm_Z7r1HvypIAUZ44sJal7dmY5SJ8sZocBsrpY4XhU79xDUMCvwIQ8D8PWrMaYX3wbImBnm2cjQuajMXl_pTrNxTN22ANCIrzXVwCyRIbkg7rfXouuFQnYasNZt-KqeoO2aqLFPuAyBdMfWbZZ4E0HX2KNhoAouSeNauFfThmECXZ_U9ydDZLS3AsCbexYvIIOFSFK9xXdZmABmq0GKSSSskVSnZt_wDPj1jtW-cGX5C6mR5Kg2PlW9yCwhNQxhTx_3mEWbnob1nVVEsg9WkUAkJymSxngnXfRSmSaFZ99rsIkTpWP_xDVkZeOlqU7T-6vsTnpsw3AIJ7hDSkmCvjv6U8JYEg3mV4tZyNDaxR8VS_LSzEIwGV2dKmSNXusa6iQc2FA6ugFO4mUrvuqoeWorQqFcN6KceXjRQg5NhIBfhTfT6hkwyeRsNIBNNhqqy3NNhcqQOxs3QDiSwVd-u_w62PPIpEAcO7GhgvfyTtiONxNQmlS6gmuqkWhzlC6yYJwu-r4WClYFCBazAj63gTZwgysC6GjRlPvznkmLA9NarD91YOKIbZ5B7OWjkAyjNssXdGaBIz_fR6dDO-CxievXKIfSw1oP3OGsy1dolMxMhCTrCvuf6CNBfHRS7VjMtelwEHI4bAprV3uQhdyxTlYJfuAw9xSC2MS1fNKKnoBasrqkCBP4kz0oLYjsixNmioPujiGzPKyxvTGUtH5FHs-15B8_v-12urXSeaNDD7XMtkxj4Lr6C4eyu-LxCEK1oOlRpwPvJUZq-BWNyP8WvpgufC0n3rDV9fJaKHWx8wg0_08LuOc9F7QOE2Yb4pc_IFijU7Oy3L4XlOXwTa1ysprMXrsQbg55dVmRt-fGzzWUJrD1P6NEpmIBkl9U2zFWVu_NWDyB-snAVXwAn_yqTJqwFr1FrHdKGbU-PuJFVUcdh2mGNip7KyVNUf9GR8CKtBQFVJxZVnSw2kgG_IR8ayLUnfWfC3jyoiO4U7RVClFUeCqCswCCwYM7ahtIQ7vpV21hVc_xK4kcXn485JkDxn4xeZ6IBo3em3m_0G00?></g></svg>